<svg width="48" height="48" viewBox="0 0 48 48" fill="white" xmlns="http://www.w3.org/2000/svg">
<path style= "fill:white;" d="M24.0003 18.2134C22.8558 18.2134 21.737 18.5528 20.7854 19.1886C19.8338 19.8245 19.0921 20.7282 18.6541 21.7856C18.2162 22.843 18.1016 24.0065 18.3249 25.129C18.5481 26.2515 19.0993 27.2826 19.9085 28.0919C20.7178 28.9012 21.7489 29.4523 22.8714 29.6756C23.9939 29.8988 25.1574 29.7842 26.2148 29.3463C27.2722 28.9083 28.1759 28.1666 28.8118 27.215C29.4476 26.2634 29.787 25.1446 29.787 24.0001C29.787 23.2402 29.6373 22.4877 29.3465 21.7856C29.0557 21.0836 28.6295 20.4456 28.0921 19.9083C27.5548 19.3709 26.9169 18.9447 26.2148 18.6539C25.5127 18.3631 24.7602 18.2134 24.0003 18.2134ZM47.1703 12.4967C47.1581 10.6949 46.8262 8.90942 46.1903 7.22341C45.722 5.98969 44.9973 4.8693 44.0642 3.93618C43.1311 3.00306 42.0107 2.27842 40.777 1.81008C39.091 1.17416 37.3056 0.842357 35.5037 0.830081C32.4937 0.666748 31.607 0.666748 24.0003 0.666748C16.3937 0.666748 15.507 0.666748 12.497 0.830081C10.6951 0.842357 8.90966 1.17416 7.22366 1.81008C5.98993 2.27842 4.86954 3.00306 3.93642 3.93618C3.0033 4.8693 2.27867 5.98969 1.81033 7.22341C1.17441 8.90942 0.842601 10.6949 0.830325 12.4967C0.666992 15.5067 0.666992 16.3934 0.666992 24.0001C0.666992 31.6068 0.666992 32.4934 0.830325 35.5034C0.855441 37.3117 1.1868 39.1026 1.81033 40.8001C2.27659 42.0282 3.00063 43.1421 3.93366 44.0668C4.86278 45.0055 5.98557 45.7301 7.22366 46.1901C8.90966 46.826 10.6951 47.1578 12.497 47.1701C15.507 47.3334 16.3937 47.3334 24.0003 47.3334C31.607 47.3334 32.4937 47.3334 35.5037 47.1701C37.3056 47.1578 39.091 46.826 40.777 46.1901C42.0151 45.7301 43.1379 45.0055 44.067 44.0668C45 43.1421 45.7241 42.0282 46.1903 40.8001C46.8256 39.1058 47.1574 37.3128 47.1703 35.5034C47.3337 32.4934 47.3337 31.6068 47.3337 24.0001C47.3337 16.3934 47.3337 15.5067 47.1703 12.4967ZM41.2437 31.1634C41.1688 32.6033 40.8615 34.0216 40.3337 35.3634C39.8807 36.4827 39.2073 37.4994 38.3535 38.3532C37.4997 39.207 36.4829 39.8804 35.3637 40.3334C34.0092 40.8318 32.583 41.1076 31.1403 41.1501C29.297 41.1501 28.807 41.1501 24.0003 41.1501C19.1937 41.1501 18.7037 41.1501 16.8603 41.1501C15.4177 41.1076 13.9915 40.8318 12.637 40.3334C11.4799 39.9034 10.435 39.2174 9.58033 38.3267C8.73488 37.4897 8.08196 36.4784 7.66699 35.3634C7.16663 34.0104 6.89841 32.5825 6.87366 31.1401C6.87366 29.2968 6.87366 28.8067 6.87366 24.0001C6.87366 19.1934 6.87366 18.7034 6.87366 16.8601C6.89841 15.4177 7.16663 13.9898 7.66699 12.6367C8.09698 11.4797 8.78297 10.4347 9.67366 9.58008C10.5144 8.7392 11.5246 8.08697 12.637 7.66675C13.9915 7.16836 15.4177 6.89257 16.8603 6.85008C18.7037 6.85008 19.1937 6.85008 24.0003 6.85008C28.807 6.85008 29.297 6.85008 31.1403 6.85008C32.583 6.89257 34.0092 7.16836 35.3637 7.66675C36.5208 8.09674 37.5657 8.78272 38.4203 9.67342C39.2658 10.5105 39.9187 11.5217 40.3337 12.6367C40.832 13.9912 41.1078 15.4175 41.1503 16.8601C41.1503 18.7034 41.1503 19.1934 41.1503 24.0001C41.1503 28.8067 41.3137 29.2968 41.2437 31.1401V31.1634ZM37.5103 13.8034C37.2325 13.0497 36.7945 12.3652 36.2265 11.7972C35.6585 11.2292 34.974 10.7912 34.2203 10.5134C33.1854 10.1547 32.0955 9.98093 31.0003 10.0001C29.1803 10.0001 28.667 10.0001 24.0003 10.0001C19.3337 10.0001 18.8203 10.0001 17.0003 10.0001C15.8996 10.0108 14.8095 10.2162 13.7803 10.6067C13.0382 10.8719 12.3609 11.2921 11.7937 11.8392C11.2264 12.3864 10.7821 13.048 10.4903 13.7801C10.1515 14.8193 9.98593 15.9071 10.0003 17.0001C10.0003 18.8201 10.0003 19.3334 10.0003 24.0001C10.0003 28.6667 10.0003 29.1801 10.0003 31.0001C10.0235 32.0995 10.2285 33.1876 10.607 34.2201C10.8848 34.9738 11.3228 35.6582 11.8908 36.2262C12.4588 36.7943 13.1433 37.2323 13.897 37.5101C14.8925 37.8762 15.9402 38.081 17.0003 38.1167C18.8203 38.1167 19.3337 38.1167 24.0003 38.1167C28.667 38.1167 29.1803 38.1167 31.0003 38.1167C32.101 38.106 33.1912 37.9006 34.2203 37.5101C34.974 37.2323 35.6585 36.7943 36.2265 36.2262C36.7945 35.6582 37.2325 34.9738 37.5103 34.2201C37.9009 33.1909 38.1062 32.1008 38.117 31.0001C38.117 29.1801 38.117 28.6667 38.117 24.0001C38.117 19.3334 38.117 18.8201 38.117 17.0001C38.1177 15.8983 37.9119 14.8061 37.5103 13.7801V13.8034ZM24.0003 32.9134C22.8309 32.9134 21.673 32.6827 20.5929 32.2345C19.5128 31.7863 18.5317 31.1293 17.7059 30.3014C16.8801 29.4734 16.2257 28.4906 15.7803 27.4093C15.3349 26.328 15.1073 25.1695 15.1103 24.0001C15.1103 22.2362 15.6337 20.512 16.6141 19.0457C17.5946 17.5794 18.988 16.437 20.6181 15.763C22.2481 15.0891 24.0415 14.9139 25.7712 15.2598C27.5008 15.6056 29.089 16.4568 30.3346 17.7057C31.5802 18.9546 32.4273 20.545 32.7686 22.2755C33.1098 24.0061 32.93 25.799 32.2518 27.4273C31.5736 29.0556 30.4275 30.446 28.9587 31.4226C27.4898 32.3992 25.7642 32.918 24.0003 32.9134ZM33.3337 16.8368C32.8179 16.7822 32.3405 16.5386 31.9936 16.153C31.6467 15.7674 31.4547 15.2671 31.4547 14.7484C31.4547 14.2297 31.6467 13.7294 31.9936 13.3438C32.3405 12.9582 32.8179 12.7147 33.3337 12.6601C33.8495 12.7147 34.3268 12.9582 34.6737 13.3438C35.0207 13.7294 35.2126 14.2297 35.2126 14.7484C35.2126 15.2671 35.0207 15.7674 34.6737 16.153C34.3268 16.5386 33.8495 16.7822 33.3337 16.8368Z" fill="#626262"/>
</svg>
