<svg width="48" height="48" viewBox="0 0 48 48" fill="none" xmlns="http://www.w3.org/2000/svg">
<path style= "fill:white;" d="M43.7633 0.666586H4.23664C3.79232 0.660415 3.35114 0.74183 2.93829 0.906182C2.52544 1.07053 2.14901 1.3146 1.8305 1.62445C1.51199 1.93429 1.25763 2.30385 1.08196 2.71201C0.90628 3.12017 0.812727 3.55893 0.806641 4.00325V43.9966C0.812727 44.4409 0.90628 44.8797 1.08196 45.2878C1.25763 45.696 1.51199 46.0655 1.8305 46.3754C2.14901 46.6852 2.52544 46.9293 2.93829 47.0937C3.35114 47.258 3.79232 47.3394 4.23664 47.3332H43.7633C44.2076 47.3394 44.6488 47.258 45.0617 47.0937C45.4745 46.9293 45.8509 46.6852 46.1694 46.3754C46.488 46.0655 46.7423 45.696 46.918 45.2878C47.0937 44.8797 47.1872 44.4409 47.1933 43.9966V4.00325C47.1872 3.55893 47.0937 3.12017 46.918 2.71201C46.7423 2.30385 46.488 1.93429 46.1694 1.62445C45.8509 1.3146 45.4745 1.07053 45.0617 0.906182C44.6488 0.74183 44.2076 0.660415 43.7633 0.666586ZM14.8766 39.7266H7.87664V18.7266H14.8766V39.7266ZM11.3766 15.7866C10.4113 15.7866 9.4854 15.4031 8.80277 14.7205C8.12014 14.0378 7.73664 13.112 7.73664 12.1466C7.73664 11.1812 8.12014 10.2553 8.80277 9.57272C9.4854 8.89009 10.4113 8.50659 11.3766 8.50659C11.8893 8.44845 12.4084 8.49925 12.9 8.65565C13.3916 8.81205 13.8447 9.07053 14.2295 9.41416C14.6143 9.7578 14.9222 10.1788 15.133 10.6497C15.3438 11.1206 15.4528 11.6307 15.4528 12.1466C15.4528 12.6625 15.3438 13.1726 15.133 13.6435C14.9222 14.1143 14.6143 14.5354 14.2295 14.879C13.8447 15.2226 13.3916 15.4811 12.9 15.6375C12.4084 15.7939 11.8893 15.8447 11.3766 15.7866ZM40.1233 39.7266H33.1233V28.4566C33.1233 25.6333 32.12 23.7899 29.5766 23.7899C28.7895 23.7957 28.0231 24.0426 27.3806 24.4973C26.7381 24.9521 26.2504 25.5928 25.9833 26.3333C25.8007 26.8817 25.7216 27.4593 25.75 28.0366V39.7032H18.75C18.75 39.7032 18.75 20.6166 18.75 18.7033H25.75V21.6666C26.3859 20.5632 27.3108 19.6541 28.425 19.0374C29.5392 18.4207 30.8006 18.1196 32.0733 18.1666C36.74 18.1666 40.1233 21.1766 40.1233 27.6399V39.7266Z" fill="#626262"/>
</svg>
