<svg width="48" height="38" viewBox="0 0 48 38" fill="none" xmlns="http://www.w3.org/2000/svg">
<a class="newLink" href="mailto:contact@wefolks.co"
                                target="_blank"><path style= "fill:white;" d="M42.667 0.333252H5.33366C2.76699 0.333252 0.690326 2.43325 0.690326 4.99992L0.666992 32.9999C0.666992 35.5666 2.76699 37.6666 5.33366 37.6666H42.667C45.2337 37.6666 47.3337 35.5666 47.3337 32.9999V4.99992C47.3337 2.43325 45.2337 0.333252 42.667 0.333252ZM41.7337 10.2499L25.237 20.5633C24.4903 21.0299 23.5103 21.0299 22.7637 20.5633L6.26699 10.2499C5.68366 9.87659 5.33366 9.24659 5.33366 8.56992C5.33366 7.00659 7.03699 6.07325 8.36699 6.88992L24.0003 16.6666L39.6337 6.88992C40.9637 6.07325 42.667 7.00659 42.667 8.56992C42.667 9.24659 42.317 9.87659 41.7337 10.2499Z" fill="#626262"/>
</a></svg>
